:SAMPLES-PER-SECOND 30
:FULLY-SPECIFIED
:DEGREES
823
root  44.743 37.3687 1.91411 92.3228 -87.0218 -95.7562
RightUpLeg  -19.8181 -3.48553 4.20678
RightLeg  29.0508 0.246539 -0.100382
RightFoot  -6.27058 0.0566234 -2.23621
RightToes  3.49245e-010 0 -3.6325e-017
Spine  6.12567 -1.02337 13.2042
Spine1  6.26238 1.13035 -2.79164
HEad  -13.2639 -18.6024 4.61936
LeftShoulder1  -0.255553 4.14517 -33.7056
LeftArm  14.8701 4.65834 -41.1072
LeftForeArm  20.9212 -28.5218 -5.02781
LeftHand  -0.0274885 5.35369 2.46717
RightShoulder  -0.880428 -5.88749 30.3225
RightArm  14.5045 4.32248 47.8479
RightForeArm  17.7463 6.24064 7.76149
RightHand  -0.307014 5.5138 -3.5801
LeftUpLeg  -2.07524 -0.0388362 5.86518
LeftLeg  57.4304 -0.996643 -1.20051
LeftFoot  9.88982 0.894176 -4.81793
LeftToes  -5.6298e-010 8.41567e-011 -1.83319e-011
824
root  43.5507 37.6339 1.73126 82.6975 -87.2299 -86.395
RightUpLeg  -16.9289 -4.06026 4.07022
RightLeg  28.2566 0.383045 -0.0243063
RightFoot  -8.06776 0.00541207 -2.08595
RightToes  3.49245e-010 0 -3.6325e-017
Spine  6.19565 -0.914339 13.7237
Spine1  6.19058 1.47403 -3.40227
HEad  -12.4137 -18.6704 4.60309
LeftShoulder1  -0.284132 4.21679 -33.7107
LeftArm  16.6431 6.96286 -41.2656
LeftForeArm  21.5948 -27.281 -4.7104
LeftHand  -0.0291635 5.14637 1.5756
RightShoulder  -0.806342 -5.72651 29.6534
RightArm  15.4695 6.90698 48.8453
RightForeArm  15.9055 8.18762 7.92533
RightHand  -0.35006 5.68869 -3.98377
LeftUpLeg  -6.67421 -0.623929 5.95819
LeftLeg  62.4091 -1.30083 -2.09909
LeftFoot  6.21767 0.59321 -4.10023
LeftToes  -5.6298e-010 8.41567e-011 -1.83319e-011
825
root  42.3273 37.917 1.55878 79.7429 -87.688 -83.5375
RightUpLeg  -13.8875 -4.3409 3.65447
RightLeg  26.8145 0.599506 0.0792258
RightFoot  -9.56707 -0.0348244 -1.98058
RightToes  3.49245e-010 0 -3.6325e-017
Spine  5.61013 -0.449858 13.9206
Spine1  6.70653 2.07195 -3.95266
HEad  -12.1735 -19.2212 4.83103
LeftShoulder1  -0.282602 4.21162 -33.7842
LeftArm  18.1227 9.13979 -41.299
LeftForeArm  20.5974 -25.4355 -4.33203
LeftHand  -0.0311594 4.89975 1.22915
RightShoulder  -0.827748 -5.80219 29.3961
RightArm  16.6644 9.59501 49.4685
RightForeArm  14.6864 10.3199 7.59327
RightHand  -0.292265 5.6885 -3.38717
LeftUpLeg  -10.8009 -0.955539 5.57262
LeftLeg  63.7803 -1.50692 -2.70459
LeftFoot  4.9253 0.547249 -4.05702
LeftToes  -5.6298e-010 8.41567e-011 -1.83319e-011
826
root  41.1127 38.1713 1.39764 88.1837 -88.1922 -92.1082
RightUpLeg  -10.7538 -5.0832 3.19014
RightLeg  25.1296 1.59777 0.551274
RightFoot  -10.8386 -0.0628264 -2.26292
RightToes  3.49245e-010 0 -3.6325e-017
Spine  5.61283 0.0429912 14.5179
Spine1  6.4572 2.86117 -5.347
HEad  -11.9768 -19.362 4.47713
LeftShoulder1  -0.305071 4.26675 -33.8432
LeftArm  18.6722 11.4106 -40.8935
LeftForeArm  19.1743 -23.194 -4.12655
LeftHand  -0.0260559 6.03488 1.02941
RightShoulder  -0.786233 -5.73437 28.6187
RightArm  18.8389 11.1282 50.2658
RightForeArm  11.3299 13.5313 6.83215
RightHand  -0.284241 6.41012 -3.1262
LeftUpLeg  -14.2956 -0.960882 4.97122
LeftLeg  62.4013 -1.58239 -2.69135
LeftFoot  2.53535 0.475219 -3.99076
LeftToes  -5.6298e-010 8.41567e-011 -1.83319e-011
827
root  39.8981 38.4008 1.25474 108.444 -88.7699 -112.298
RightUpLeg  -7.80081 -6.21798 2.33282
RightLeg  23.3763 3.05639 1.16535
RightFoot  -11.9843 -0.0943663 -2.28274
RightToes  3.49245e-010 0 -3.6325e-017
Spine  5.52744 0.496306 14.8712
Spine1  6.00904 3.5407 -6.93999
HEad  -11.4082 -19.2024 4.02001
LeftShoulder1  -0.322934 4.31398 -33.7041
LeftArm  16.3244 13.5291 -40.3435
LeftForeArm  20.4524 -20.4025 -5.0055
LeftHand  -0.0269186 5.89048 1.21081
RightShoulder  -0.776235 -5.72894 28.2488
RightArm  21.5284 12.7584 50.5688
RightForeArm  7.16647 16.5527 6.00557
RightHand  -0.373971 7.02065 -3.84528
LeftUpLeg  -17.2489 -0.851051 4.03482
LeftLeg  58.3271 -1.88798 -2.77736
LeftFoot  0.258964 0.240954 -2.40463
LeftToes  -5.6298e-010 8.41567e-011 -1.83319e-011
828
root  38.6938 38.5722 1.10765 155.381 -89.0524 -159.24
RightUpLeg  -4.77724 -7.29208 1.24811
RightLeg  21.5128 4.51355 1.72211
RightFoot  -13.1547 -0.130395 -2.63513
RightToes  3.49245e-010 0 -3.6325e-017
Spine  5.63208 0.957427 14.7362
Spine1  5.56697 4.14556 -8.47274
HEad  -11.5365 -18.756 3.9911
LeftShoulder1  -0.300523 4.26239 -33.4381
LeftArm  10.6159 15.2897 -39.6007
LeftForeArm  25.1984 -16.9825 -6.76757
LeftHand  -0.0329823 6.76214 0.286357
RightShoulder  -0.819853 -5.84368 28.4073
RightArm  24.0344 14.5562 50.255
RightForeArm  3.80089 19.6262 5.20334
RightHand  -0.419415 7.37283 -4.16879
LeftUpLeg  -19.0987 -0.326009 3.08601
LeftLeg  51.6287 -2.23311 -2.57048
LeftFoot  -1.70081 0.21158 -2.41672
LeftToes  -5.6298e-010 8.41567e-011 -1.83319e-011
829
root  37.5135 38.6943 0.972528 -177.883 -88.6212 174.03
RightUpLeg  -1.79554 -7.85658 0.492486
RightLeg  19.5887 5.67003 2.02898
RightFoot  -14.0558 -0.159549 -2.72568
RightToes  3.49245e-010 0 -3.6325e-017
Spine  5.37367 1.33203 14.1497
Spine1  5.86905 4.3618 -8.73149
HEad  -12.2661 -18.169 3.62813
LeftShoulder1  -0.393964 4.48226 -34.1249
LeftArm  5.61422 16.5572 -38.3844
LeftForeArm  29.3947 -13.8314 -8.11923
LeftHand  -0.0260305 7.52778 0.602094
RightShoulder  -0.722239 -5.63451 27.2528
RightArm  23.9739 16.1371 50.8787
RightForeArm  4.36752 22.0072 4.7168
RightHand  -0.387679 7.46219 -3.85697
LeftUpLeg  -20.0312 0.569361 2.47149
LeftLeg  42.6833 -2.15707 -1.79487
LeftFoot  -2.79999 0.241359 -3.00991
LeftToes  -5.6298e-010 8.41567e-011 -1.83319e-011
830
root  36.3456 38.7923 0.841902 -166.26 -88.0167 162.605
RightUpLeg  0.974531 -7.92967 -0.0839209
RightLeg  17.5728 6.39459 1.95873
RightFoot  -14.6802 -0.182286 -2.84613
RightToes  3.49245e-010 0 -3.6325e-017
Spine  5.25335 1.61218 13.56
Spine1  5.84454 4.56629 -9.43837
HEad  -12.7764 -17.278 3.41666
LeftShoulder1  -0.383605 4.45629 -34.1245
LeftArm  1.00928 17.9835 -37.5213
LeftForeArm  32.7526 -10.8439 -8.79666
LeftHand  -0.0213992 9.66239 0.843957
RightShoulder  -0.728358 -5.66458 27.0562
RightArm  23.5868 17.9007 50.9934
RightForeArm  4.99994 23.6527 4.79332
RightHand  -0.414464 7.57238 -4.07733
LeftUpLeg  -20.1225 1.93919 1.7286
LeftLeg  31.6618 -1.21358 -0.436773
LeftFoot  -1.73776 0.232944 -2.63563
LeftToes  -5.6298e-010 8.41567e-011 -1.83319e-011
831
root  35.1663 38.8245 0.740014 -165.957 -87.7785 162.361
RightUpLeg  4.02367 -8.16137 -0.541637
RightLeg  15.3844 6.99478 2.02378
RightFoot  -15.3841 -0.209161 -2.97934
RightToes  3.49245e-010 0 -3.6325e-017
Spine  4.74278 1.79116 12.7425
Spine1  6.57149 4.56334 -9.37427
HEad  -13.4103 -16.3713 3.0678
LeftShoulder1  -0.360572 4.39403 -34.3377
LeftArm  -2.2469 19.1782 -37.0473
LeftForeArm  36.6735 -8.27769 -8.88503
LeftHand  -0.0394938 9.1653 0.307507
RightShoulder  -0.721373 -5.67343 26.5921
RightArm  23.4728 19.222 51.0061
RightForeArm  5.38592 24.9099 5.0532
RightHand  -0.471438 6.81629 -4.81956
LeftUpLeg  -19.3234 3.03089 1.24519
LeftLeg  19.5542 -0.721797 0.0130345
LeftFoot  -1.29385 0.302463 -3.35587
LeftToes  -5.6298e-010 8.41567e-011 -1.83319e-011
832
root  33.9878 38.8199 0.648982 -167.844 -87.2387 164.475
RightUpLeg  6.71721 -8.11664 -0.931285
RightLeg  13.4364 7.75424 2.01174
RightFoot  -16.0076 -0.225368 -2.8763
RightToes  3.49245e-010 0 -3.6325e-017
Spine  4.67134 1.88324 12.1042
Spine1  6.48237 4.64938 -9.94945
HEad  -13.1157 -15.2224 3.2178
LeftShoulder1  -0.32209 4.30582 -34.0146
LeftArm  -3.33258 21.0069 -36.6087
LeftForeArm  38.0992 -7.07515 -8.71716
LeftHand  -0.055424 8.68991 -0.253918
RightShoulder  -0.725829 -5.6773 26.7407
RightArm  23.9087 20.0285 50.8642
RightForeArm  5.09543 25.3741 5.17414
RightHand  -0.478 6.85851 -4.86773
LeftUpLeg  -18.3273 3.1052 0.984475
LeftLeg  7.98148 0.836281 0.226877
LeftFoot  -1.67632 0.305313 -3.49421
LeftToes  -5.6298e-010 8.41567e-011 -1.83319e-011
833
root  32.7574 38.7112 0.590446 -168.699 -86.773 165.473
RightUpLeg  9.20628 -8.03575 -1.32848
RightLeg  12.2726 8.31598 1.87127
RightFoot  -17.1069 -0.237498 -2.43043
RightToes  3.49245e-010 0 -3.6325e-017
Spine  4.36817 1.95436 10.764
Spine1  6.95112 4.54488 -9.38652
HEad  -13.2052 -14.4506 3.17724
LeftShoulder1  -0.346113 4.36206 -34.1773
LeftArm  -3.49528 22.176 -35.983
LeftForeArm  39.0893 -6.48042 -8.65648
LeftHand  -0.0890534 8.51322 -1.48665
RightShoulder  -0.717588 -5.65712 26.665
RightArm  24.211 20.2553 50.963
RightForeArm  4.85859 25.379 5.18694
RightHand  -0.532394 6.9714 -5.33915
LeftUpLeg  -17.748 2.8248 0.926382
LeftLeg  -0.046091 3.34035 -0.349415
LeftFoot  -1.60029 0.390586 -4.46042
LeftToes  -5.6298e-010 8.41567e-011 -1.83319e-011
834
root  31.4517 38.4709 0.579503 -169.51 -86.5405 166.144
RightUpLeg  11.5244 -7.84405 -1.72112
RightLeg  12.4124 8.64705 1.69988
RightFoot  -18.8988 -0.251207 -1.8603
RightToes  3.49245e-010 0 -3.6325e-017
Spine  4.18667 1.90195 9.87396
Spine1  7.57962 4.47785 -9.17739
HEad  -13.8557 -14.0295 3.68062
LeftShoulder1  -0.352106 4.38003 -34.036
LeftArm  -3.70593 22.8243 -35.9253
LeftForeArm  39.8381 -6.20001 -8.54657
LeftHand  -0.0951677 8.23295 -1.95495
RightShoulder  -0.75435 -5.74463 27.0288
RightArm  24.7138 20.0422 51.1005
RightForeArm  4.7217 24.435 4.98097
RightHand  -0.466327 6.6633 -4.8306
LeftUpLeg  -18.1043 3.06589 0.577476
LeftLeg  -1.65263 5.86262 -1.02895
LeftFoot  -1.21245 0.473815 -5.19884
LeftToes  -5.6298e-010 8.41567e-011 -1.83319e-011
835
root  30.0784 38.1849 0.628884 -166.821 -86.4234 163.347
RightUpLeg  13.3772 -7.64596 -2.47489
RightLeg  13.6966 8.95542 1.83612
RightFoot  -20.6645 -0.235582 -1.17939
RightToes  3.49245e-010 0 -3.6325e-017
Spine  3.9911 1.7581 9.16278
Spine1  7.97337 4.36759 -9.31348
HEad  -14.1334 -13.7371 4.08058
LeftShoulder1  -0.358061 4.39804 -33.8932
LeftArm  -3.28683 22.8085 -35.5102
LeftForeArm  40.0845 -6.28996 -8.68504
LeftHand  -0.122295 8.00368 -3.37829
RightShoulder  -0.767072 -5.74413 27.6022
RightArm  25.0595 18.975 51.1886
RightForeArm  4.52012 22.7092 4.72602
RightHand  -0.429515 7.12929 -4.33156
LeftUpLeg  -19.4206 2.67794 -0.356556
LeftLeg  2.58087 7.68911 -0.639068
LeftFoot  -0.0346986 0.216374 -2.46174
LeftToes  -5.6298e-010 8.41567e-011 -1.83319e-011
